<svg width="649" height="640" viewBox="0 0 649 640" fill="none" xmlns="http://www.w3.org/2000/svg">
<path d="M627.124 247.594C620.113 162.281 616.608 119.624 600.291 92.0265C553.575 13.005 417.749 -5.78946 331.965 1.41776C217.12 11.0639 85.7395 76.2258 27.9076 202.037C-24.6188 316.309 -0.398605 445.658 78.7474 530.272C223.835 685.383 523.117 657.689 596.226 555.908C625.402 515.289 627.505 450.41 630.597 355.106C632.082 309.23 629.183 272.671 627.124 247.594Z" fill="#F4F7FA"/>
<path d="M572.091 52.1946C564.666 46.1315 553.403 42.8294 543.882 42.1625C476.392 37.4422 466.543 176.679 476.888 207.796C487.232 238.913 480.529 249.131 427.376 265.411C374.222 281.691 399.722 313.036 406.201 331.367C412.679 349.698 425.509 365.184 386.761 383.398C348.012 401.613 361.478 412.899 361.478 412.899C361.478 412.899 432.936 485.042 428.989 461.945C425.041 438.848 432.193 403.972 496.26 401.32C523.856 400.179 566.114 387.187 575.471 358.022C577.651 351.231 579.166 340.858 577.51 333.829C575.21 324.078 568.727 316.396 565.126 307.218C556.737 285.831 577.78 270.17 589.89 255.874C596.214 248.411 602.533 240.759 607.373 232.25C617.426 214.583 613.662 195.638 602.715 179.353C597.466 171.546 590.173 163.26 587.882 153.945C585.423 143.941 587.567 130.271 588.15 119.978C588.609 111.905 589.388 103.865 588.928 95.7714C588.076 80.7221 584.504 62.3318 572.091 52.1946Z" fill="url(#paint0_linear_4374_38)"/>
<g opacity="0.8">
<g opacity="0.8">
<path opacity="0.8" d="M355.859 453.39C355.397 453.555 354.871 453.361 354.638 452.92C354.383 452.438 354.571 451.842 355.059 451.591C355.36 451.435 385.443 435.818 419.001 410.094C449.924 386.392 490.209 349.02 506.518 305.574C520.141 269.289 532.564 209.301 540.604 140.997C547.814 79.7472 548.952 34.4485 545.889 26.0401C545.701 25.5285 545.972 24.9645 546.49 24.7795C547.009 24.5945 547.58 24.8617 547.767 25.3732C551.351 35.2112 549.077 86.098 542.589 141.226C534.533 209.68 522.069 269.832 508.392 306.259C491.914 350.151 451.338 387.81 420.2 411.672C386.502 437.496 356.287 453.18 355.987 453.335C355.943 453.356 355.901 453.374 355.859 453.39Z" fill="white"/>
</g>
<g opacity="0.8">
<path opacity="0.8" d="M540.495 152.87C539.979 153.053 539.454 152.911 539.264 152.402C539.014 151.728 513.855 84.9201 481.412 69.8365C480.912 69.6059 480.711 69.0486 480.944 68.5554C481.18 68.0621 481.78 67.868 482.277 68.0986C515.463 83.527 540.1 148.933 541.134 151.717C541.324 152.229 541.018 152.685 540.5 152.868C540.498 152.87 540.495 152.87 540.495 152.87Z" fill="white"/>
</g>
<g opacity="0.8">
<path opacity="0.8" d="M528.225 230.347C527.84 230.484 527.392 230.377 527.116 230.046C526.767 229.625 526.827 229.004 527.253 228.659C527.438 228.509 545.962 213.512 568.817 200.927C599.698 183.923 623.365 179.175 639.159 186.818C639.654 187.058 639.858 187.647 639.615 188.136C639.372 188.625 638.775 188.826 638.28 188.586C601.94 171.002 529.25 229.584 528.521 230.178C528.43 230.253 528.329 230.311 528.225 230.347Z" fill="white"/>
</g>
<g opacity="0.8">
<path opacity="0.8" d="M447.579 388.713C447.477 388.749 447.371 388.768 447.257 388.77C446.707 388.779 446.253 388.345 446.244 387.799C446.239 387.514 445.726 358.85 439.647 328.646C434.074 300.954 422.565 266.268 399.391 258.275C398.87 258.095 398.595 257.533 398.778 257.021C398.958 256.507 399.53 256.236 400.048 256.416C419.372 263.08 433.354 287.261 441.61 328.29C447.72 358.665 448.234 387.482 448.238 387.77C448.248 388.204 447.97 388.574 447.579 388.713Z" fill="white"/>
</g>
<g opacity="0.8">
<path opacity="0.8" d="M488.817 342.402C488.412 342.546 487.945 342.418 487.676 342.06C487.348 341.621 487.443 341.004 487.885 340.682C491.099 338.337 566.906 283.331 596.468 288.583C597.012 288.679 597.371 289.193 597.274 289.727C597.176 290.264 596.658 290.62 596.114 290.522C567.389 285.418 489.851 341.696 489.072 342.265C488.993 342.327 488.905 342.37 488.817 342.402Z" fill="white"/>
</g>
</g>
<path d="M631.324 257.275C626.416 249.091 616.949 242.221 608.219 238.414C546.326 211.433 489.325 339.167 488.39 371.903C487.456 404.64 477.645 412.016 422.049 409.584C366.45 407.152 379.698 445.165 379.511 464.579C379.323 483.992 386.086 502.848 343.379 507.048C300.672 511.248 309.474 526.363 309.474 526.363C309.474 526.363 351.984 618.116 356.188 595.063C360.392 572.009 379.078 541.579 440.274 560.483C466.632 568.625 510.852 570.513 529.656 546.195C534.036 540.531 539.017 531.278 539.866 524.109C541.044 514.166 537.578 504.771 537.335 494.933C536.771 472.005 561.944 464.296 578.24 454.889C586.747 449.979 595.317 444.887 602.791 438.497C618.307 425.231 621.261 406.147 616.544 387.167C614.281 378.067 610.257 367.834 611.296 358.304C612.411 348.069 619.117 335.92 623.193 326.429C626.391 318.986 629.882 311.679 632.224 303.91C636.585 289.456 639.531 270.959 631.324 257.275Z" fill="url(#paint1_linear_4374_38)"/>
<g opacity="0.8">
<g opacity="0.8">
<path opacity="0.8" d="M290.304 562.586C289.814 562.586 289.385 562.228 289.316 561.734C289.242 561.195 289.624 560.698 290.17 560.624C290.505 560.579 324.168 555.929 364.566 542.931C401.789 530.955 452.511 509.24 482.754 473.804C508.013 444.208 540.268 391.91 571.249 330.32C599.03 275.092 615.632 232.844 615.632 223.908C615.632 223.365 616.078 222.924 616.629 222.924C617.179 222.924 617.626 223.365 617.626 223.908C617.626 234.363 598.04 281.488 573.036 331.197C541.985 392.922 509.635 445.364 484.278 475.074C453.726 510.873 402.631 532.759 365.149 544.815C324.587 557.861 290.776 562.529 290.438 562.575C290.397 562.584 290.35 562.586 290.304 562.586Z" fill="white"/>
</g>
<g opacity="0.8">
<path opacity="0.8" d="M567.079 341.661C566.53 341.661 566.084 341.25 566.081 340.709C566.077 339.991 565.306 268.671 539.948 243.642C539.557 243.258 539.557 242.639 539.948 242.255C540.336 241.872 540.968 241.874 541.359 242.258C567.298 267.86 568.057 337.731 568.078 340.695C568.083 341.238 567.638 341.661 567.086 341.661C567.081 341.661 567.079 341.661 567.079 341.661Z" fill="white"/>
</g>
<g opacity="0.8">
<path opacity="0.8" d="M528.971 410.268C528.561 410.268 528.177 410.017 528.031 409.615C527.846 409.104 528.115 408.54 528.635 408.355C528.86 408.275 551.433 400.348 577.256 396.139C612.145 390.451 636.044 393.89 648.288 406.356C648.672 406.747 648.66 407.37 648.265 407.749C647.869 408.129 647.237 408.117 646.853 407.727C618.686 379.044 530.199 409.894 529.309 410.209C529.195 410.25 529.082 410.268 528.971 410.268Z" fill="white"/>
</g>
<g opacity="0.8">
<path opacity="0.8" d="M398.789 532.358C398.682 532.358 398.574 532.34 398.465 532.305C397.944 532.129 397.664 531.57 397.845 531.054C397.937 530.782 407.283 503.639 411.917 473.186C416.165 445.266 417.227 408.782 398.16 393.521C397.731 393.178 397.667 392.557 398.014 392.134C398.361 391.712 398.99 391.646 399.418 391.99C415.318 404.715 420.186 432.142 413.886 473.503C409.224 504.127 399.828 531.417 399.733 531.691C399.592 532.1 399.203 532.358 398.789 532.358Z" fill="white"/>
</g>
<g opacity="0.8">
<path opacity="0.8" d="M453.469 502.551C453.038 502.551 452.643 502.275 452.513 501.85C452.354 501.33 452.654 500.779 453.182 500.624C457.009 499.491 547.203 473.047 573.221 487.863C573.697 488.135 573.862 488.738 573.586 489.208C573.311 489.678 572.7 489.841 572.224 489.569C546.941 475.173 454.684 502.236 453.756 502.51C453.661 502.538 453.564 502.551 453.469 502.551Z" fill="white"/>
</g>
</g>
<path d="M423.854 27.166L423.142 32.2038C420.775 32.3111 418.447 32.6125 416.182 33.115L414.252 28.4152C413.727 27.134 412.239 26.5243 410.932 27.0564L402.748 30.3837C401.439 30.9158 400.8 32.391 401.323 33.6745L403.262 38.4336C401.279 39.6805 399.405 41.0918 397.66 42.6538L393.551 39.5069C392.441 38.6574 390.83 38.8675 389.953 39.9773L384.456 46.9197C383.574 48.0318 383.762 49.6258 384.872 50.4776L388.998 53.6428C387.899 55.6798 386.976 57.831 386.231 60.0758L380.995 59.3976C379.588 59.2149 378.278 60.1991 378.07 61.5967L376.754 70.3523C376.543 71.7545 377.515 73.0424 378.924 73.2251L384.176 73.9057C384.238 76.2693 384.5 78.594 384.965 80.8571L380.037 82.885C378.709 83.4308 378.056 84.9403 378.579 86.2534L381.862 94.4883C382.387 95.8082 383.894 96.4317 385.226 95.8813L390.157 93.8443C391.397 95.8356 392.811 97.7128 394.38 99.4575L391.094 103.669C390.206 104.808 390.395 106.439 391.52 107.311L398.563 112.764C399.69 113.637 401.325 113.418 402.212 112.273L405.458 108.09C407.531 109.179 409.724 110.086 412.013 110.81L411.275 116.03C411.073 117.46 412.061 118.768 413.482 118.951L422.374 120.102C423.796 120.287 425.108 119.275 425.307 117.846L426.025 112.664C428.442 112.561 430.819 112.253 433.13 111.739L435.081 116.526C435.622 117.855 437.137 118.483 438.466 117.928L446.758 114.459C448.084 113.904 448.715 112.381 448.172 111.056L446.221 106.304C448.246 105.014 450.152 103.55 451.92 101.931L455.974 105.041C457.107 105.911 458.732 105.692 459.602 104.552L465.032 97.4456C465.9 96.3106 465.684 94.6915 464.553 93.826L460.536 90.7522C461.631 88.6581 462.54 86.4452 463.262 84.141L468.283 84.7919C469.692 84.9746 470.983 83.9812 471.166 82.5744L472.306 73.7961C472.489 72.3962 471.496 71.1127 470.09 70.9301L465.083 70.2815C464.979 67.8882 464.673 65.5406 464.16 63.2593L468.803 61.341C470.108 60.802 470.726 59.3131 470.185 58.016L466.793 49.9227C466.251 48.6301 464.757 48.0181 463.452 48.5548L458.78 50.4776C457.508 48.5068 456.068 46.6479 454.47 44.9283L457.556 40.9525C458.415 39.8449 458.204 38.2623 457.089 37.4151L450.113 32.1238C448.998 31.2789 447.399 31.4867 446.538 32.5897L443.433 36.5701C441.374 35.5151 439.199 34.6382 436.929 33.9439L437.621 28.945C437.811 27.5702 436.837 26.3074 435.441 26.1269L426.726 24.9988C425.337 24.823 424.049 25.789 423.854 27.166ZM393.126 67.9727C395.645 50.6717 411.733 38.5432 429.074 40.788C446.416 43.0329 458.595 58.8221 456.265 76.1459C453.921 93.5771 437.799 105.943 420.268 103.675C402.737 101.405 390.592 85.3788 393.126 67.9727Z" fill="#D8DEE8"/>
<path d="M290.208 24.4344L289.107 32.224C285.449 32.3884 281.849 32.8543 278.346 33.6307L275.363 26.3641C274.549 24.3819 272.251 23.441 270.231 24.2632L257.578 29.4082C255.553 30.2326 254.565 32.5094 255.375 34.4985L258.374 41.8565C255.308 43.7839 252.409 45.9648 249.713 48.3832L243.35 43.5167C241.636 42.2036 239.144 42.5301 237.788 44.2429L229.288 54.9761C227.925 56.6957 228.214 59.1597 229.931 60.4774L236.31 65.3736C234.611 68.5228 233.182 71.85 232.029 75.3189L223.934 74.2707C221.761 73.9898 219.736 75.5107 219.41 77.6711L217.376 91.2109C217.05 93.3804 218.554 95.3694 220.734 95.6503L228.853 96.7008C228.95 100.355 229.352 103.951 230.074 107.45L222.455 110.585C220.401 111.43 219.392 113.762 220.202 115.794L225.278 128.526C226.09 130.565 228.42 131.531 230.479 130.679L238.103 127.53C240.019 130.609 242.205 133.511 244.632 136.208L239.554 142.719C238.179 144.482 238.473 147.003 240.213 148.35L251.104 156.782C252.846 158.131 255.375 157.791 256.747 156.023L261.765 149.556C264.97 151.241 268.364 152.644 271.902 153.763L270.759 161.835C270.447 164.046 271.974 166.069 274.174 166.352L287.922 168.131C290.12 168.417 292.152 166.853 292.457 164.642L293.568 156.631C297.307 156.473 300.981 155.996 304.553 155.201L307.568 162.603C308.406 164.658 310.75 165.628 312.802 164.77L325.625 159.408C327.672 158.551 328.651 156.195 327.809 154.144L324.792 146.795C327.922 144.802 330.87 142.536 333.605 140.033L339.87 144.843C341.622 146.188 344.132 145.847 345.479 144.089L353.875 133.102C355.215 131.348 354.884 128.843 353.135 127.505L346.925 122.755C348.619 119.515 350.023 116.094 351.138 112.533L358.903 113.538C361.083 113.821 363.079 112.284 363.362 110.11L365.125 96.5364C365.407 94.3692 363.871 92.387 361.698 92.1061L353.956 91.1036C353.797 87.404 353.325 83.773 352.529 80.2471L359.711 77.2806C361.73 76.447 362.686 74.1451 361.844 72.1401L356.599 59.6256C355.761 57.6274 353.45 56.682 351.434 57.5109L344.213 60.482C342.247 57.4333 340.018 54.5605 337.55 51.9046L342.321 45.7569C343.649 44.0465 343.325 41.5984 341.596 40.2876L330.81 32.1075C329.086 30.8013 326.613 31.1233 325.282 32.8292L320.479 38.9836C317.293 37.3531 313.931 35.9966 310.423 34.921L311.495 27.1908C311.788 25.0647 310.28 23.1145 308.126 22.8359L294.648 21.0911C292.499 20.8125 290.509 22.3083 290.208 24.4344ZM242.696 87.5296C246.59 60.7789 271.465 42.0254 298.276 45.4966C325.088 48.9678 343.919 73.3801 340.319 100.167C336.696 127.117 311.77 146.24 284.665 142.73C257.557 139.223 238.776 114.44 242.696 87.5296Z" fill="#D8DEE8"/>
<path d="M277.313 99.8636L218.369 583.437C217.485 590.688 222.547 597.187 229.641 597.882L475.156 624.486C490.196 625.409 498.43 617.825 499.36 610.115L561.246 95.9951C562.169 88.3288 554.791 81.3842 539.687 81.3842L291.939 86.5339C284.764 86.6549 278.193 92.6518 277.313 99.8636Z" fill="url(#paint2_linear_4374_38)"/>
<path d="M266.263 99.0326L206.994 585.025C206.106 592.312 211.187 598.846 218.304 599.544L472.833 624.557C480.814 625.341 488.127 619.643 489.06 611.894L551.292 95.1184C552.22 87.4111 546.359 81.2178 538.291 81.3525L280.939 85.639C273.743 85.7554 267.147 91.7843 266.263 99.0326Z" fill="url(#paint3_linear_4374_38)"/>
<path d="M271.094 125.838L216.159 576.449C215.328 583.257 220.088 589.35 226.749 589.989L466.126 612.956C473.544 613.669 480.341 608.35 481.211 601.136L538.724 123.755C539.589 116.58 534.147 110.773 526.653 110.853L284.819 113.394C278.088 113.463 271.92 119.065 271.094 125.838Z" fill="#D8DEE8"/>
<path d="M399.46 98.6967C399.146 101.284 401.027 103.355 403.664 103.321C406.304 103.289 408.701 101.161 409.016 98.5688C409.331 95.9769 407.443 93.9056 404.803 93.9444C402.163 93.9832 399.773 96.1116 399.46 98.6967Z" fill="url(#paint4_linear_4374_38)"/>
<path d="M312.479 428.318C361.484 338.892 434.693 312.123 456.734 219.959C468.647 170.141 460.531 122.458 446.859 82.8734L538.295 81.3502C546.363 81.2155 552.224 87.4111 551.296 95.1161L489.064 611.892C488.131 619.643 480.817 625.341 472.837 624.555L272.752 604.893C271.269 524.764 290.633 468.179 312.479 428.318Z" fill="white"/>
<path d="M24.6112 150.317C24.6112 102.799 66.6078 64.2849 117.006 64.2895C165.913 64.294 204.511 100.782 204.511 145.786C204.511 190.79 165.913 229.222 117.006 231.691C66.6055 234.235 24.6112 197.836 24.6112 150.317Z" fill="url(#paint5_linear_4374_38)"/>
<path d="M30.0439 146.528C30.0439 99.0098 70.8258 60.4959 119.764 60.5004C167.255 60.505 204.738 96.9933 204.738 141.997C204.738 187.001 167.255 225.433 119.764 227.902C70.8234 230.446 30.0439 194.044 30.0439 146.528Z" fill="url(#paint6_linear_4374_38)"/>
<g opacity="0.5">
<path opacity="0.5" d="M44.0052 146.165C44.0052 106.242 78.267 73.8826 119.384 73.8894C159.285 73.894 190.777 104.55 190.777 142.36C190.777 180.171 159.287 212.46 119.384 214.533C78.267 216.671 44.0052 186.088 44.0052 146.165Z" fill="white"/>
</g>
<path opacity="0.5" d="M116.555 80.0233C156.455 80.0279 187.947 110.684 187.947 148.494C187.947 157.485 186.15 166.156 182.899 174.19C187.933 164.516 190.779 153.69 190.779 142.36C190.779 104.55 159.289 73.894 119.387 73.8894C87.6747 73.8871 60.0579 93.1429 49.0746 120.264C61.5109 96.42 87.2906 80.021 116.555 80.0233Z" fill="white"/>
<path d="M85.2926 136.394V171.238C85.2926 181.311 93.8789 189.258 104.439 188.986L130.623 188.313C141.056 188.043 149.487 179.747 149.487 169.778V135.302L85.2926 136.394ZM109.406 172.416L114.272 157.862C112.188 156.8 110.776 154.709 110.776 152.272C110.776 148.696 113.816 145.738 117.56 145.67C121.299 145.599 124.328 148.435 124.328 152.005C124.328 154.437 122.921 156.581 120.843 157.728L125.69 172.042L109.406 172.416Z" fill="white"/>
<path d="M142.044 132.281C139.265 132.326 137.012 130.205 137.012 127.54C137.012 117.298 128.3 109.076 117.558 109.213C106.778 109.35 97.9788 117.848 97.9788 128.154C97.9788 130.835 95.6951 133.046 92.8747 133.094C90.0519 133.139 87.7613 131.002 87.7613 128.316C87.7613 112.63 101.165 99.718 117.56 99.5375C133.867 99.3571 147.067 111.849 147.067 127.384C147.067 130.043 144.82 132.235 142.044 132.281Z" fill="white"/>
<path d="M202.691 331.02C202.691 331.02 200.91 324.43 202.173 322.744C203.434 321.059 211.15 314.322 210.41 316.519C209.667 318.716 208.554 320.18 208.554 320.18C208.554 320.18 212.71 322.084 210.037 324.939C207.367 327.796 206.474 328.453 206.326 331.018C206.18 333.582 204.473 334.462 202.691 331.02Z" fill="url(#paint7_linear_4374_38)"/>
<path d="M128.571 615.511C128.571 615.511 127.627 621.211 127.747 623.239C127.867 625.267 150.676 626.304 150.905 624.785C151.134 623.267 147.136 620.848 144.32 619.997C141.504 619.142 133.263 616.868 133.263 616.868L128.571 615.511Z" fill="url(#paint8_linear_4374_38)"/>
<path d="M134.106 609.83L133.38 616.918C133.38 616.918 130.731 618.647 128.396 617.313L127.228 609.599L134.106 609.83Z" fill="url(#paint9_linear_4374_38)"/>
<path d="M87.8747 624.751C87.8747 624.751 86.9307 630.451 87.051 632.479C87.1713 634.507 109.98 635.544 110.209 634.025C110.441 632.507 106.44 630.088 103.624 629.237C100.808 628.385 92.5669 626.108 92.5669 626.108L87.8747 624.751Z" fill="url(#paint10_linear_4374_38)"/>
<path d="M93.4123 619.069L92.6858 626.158C92.6858 626.158 90.0366 627.887 87.702 626.553L86.5336 618.839L93.4123 619.069Z" fill="url(#paint11_linear_4374_38)"/>
<path d="M129.969 424.794C132.604 430.069 135.242 435.344 137.877 440.62C139.996 470.725 141.051 503.464 140.373 538.475C139.869 564.522 138.46 589.197 136.433 612.358C132.858 612.196 129.284 612.033 125.709 611.871C120.54 601.746 114.439 586.406 113.877 567.47C113.291 547.719 119.358 545.095 118.974 526.184C118.474 501.671 108.06 495.131 102.511 465.646C100.39 454.37 98.9622 439.642 100.658 421.775C110.429 422.782 120.198 423.789 129.969 424.794Z" fill="url(#paint12_linear_4374_38)"/>
<path opacity="0.3" d="M100.66 421.775C105.935 422.319 111.211 422.862 116.488 423.406C125.986 439.718 128.638 456.694 126.97 464.205C124.612 474.831 118.374 478.234 118.719 488.901C119.059 499.456 125.359 502.194 129.355 514.633C132.122 523.247 131.391 531.167 129.818 546.655C126.648 577.852 119.015 587.393 125.408 597.621C127.224 600.528 130.498 603.988 136.912 606.63C136.754 608.544 136.599 610.462 136.435 612.355C132.86 612.196 129.286 612.031 125.711 611.871C120.542 601.746 114.441 586.406 113.879 567.47C113.293 547.719 119.36 545.095 118.976 526.184C118.476 501.671 108.062 495.133 102.513 465.649C100.392 454.372 98.9619 439.645 100.66 421.775Z" fill="url(#paint13_linear_4374_38)"/>
<path d="M115.782 434.292C110.833 460.928 106.463 489.435 103.052 519.669C98.9338 556.173 96.7357 590.588 95.8727 622.538C91.9486 622.648 88.0268 622.758 84.1027 622.867C68.6423 592.679 67.6983 572.213 69.9265 558.888C70.7849 553.755 73.1194 543.686 73.6516 528.637C74.0218 518.148 73.3438 510.164 72.497 500.568C70.6414 479.529 68.3878 474.936 68.0639 458.843C67.7585 443.739 67.696 436.098 72.0644 431.638C83.5729 419.884 113.513 433.25 115.782 434.292Z" fill="url(#paint14_linear_4374_38)"/>
<path d="M200.64 330.004C203.25 329.824 205.857 329.646 208.467 329.465C214.622 354.017 210.207 377.831 196.315 386.589C174.61 400.272 134.27 374.492 125.529 346.419C121.693 334.097 122.565 316.316 130.235 312.861C132.364 311.902 135.668 311.753 142.824 315.718C164.196 327.561 164.758 349.945 175.624 351.841C180.45 352.686 188.252 349.646 200.64 330.004Z" fill="url(#paint15_linear_4374_38)"/>
<path d="M140.88 446.021C144.64 439.864 139.918 433.926 138.844 422.264C137.627 409.044 142.787 406.842 147.888 384.935C151.283 370.365 154.538 356.378 150.651 340.004C148.788 332.157 145.628 318.848 134.466 312.42C128.708 309.102 120.843 309.435 105.353 310.234C86.195 311.223 76.6184 311.716 69.4736 315.43C68.4278 315.973 46.6972 327.64 45.2002 346.659C43.6778 366.015 65.0335 368.616 67.8817 394.428C69.1612 406.016 66.8822 423.837 65.4037 435.395C63.9854 446.493 63.0067 449.334 65.2279 452.696C70.5772 460.796 86.9516 458.487 119.7 453.872C132.546 452.059 138.074 450.615 140.88 446.021Z" fill="url(#paint16_linear_4374_38)"/>
<path d="M91.0504 390.274C89.6645 395.305 84.6853 399.062 81.2193 411.3C80.472 413.942 75.1388 432.757 82.0546 437.389C86.0481 440.063 89.6344 434.995 99.3289 434.333C116.127 433.187 124.13 447.121 135.104 443.315C137.008 442.652 139.521 441.246 142.031 438.012C142.531 440.926 142.445 443.459 140.881 446.023C138.077 450.618 132.547 452.061 119.701 453.872C86.9528 458.487 70.5784 460.796 65.2291 452.696C63.0102 449.337 63.9866 446.494 65.4049 435.395C66.8834 423.835 69.1624 406.013 67.8829 394.428C65.0347 368.616 43.6766 366.015 45.2014 346.659C45.6086 341.484 47.5359 336.878 50.1158 332.865C77.2073 343.685 95.4025 374.465 91.0504 390.274Z" fill="url(#paint17_linear_4374_38)"/>
<path d="M56.834 428.347L62.2551 431.764C63.2292 430.654 65.4827 428.416 68.9996 427.653C72.9631 426.792 77.5142 428.028 77.6183 429.274C77.7039 430.275 74.932 431.284 74.504 431.439C71.045 432.7 68.479 431.652 67.0815 433.024C66.5864 433.508 65.9709 434.413 64.5526 435.248C64.1801 435.468 63.7914 435.662 63.5855 435.742C61.2764 436.628 57.3176 432.661 56.9775 432.314L56.834 428.347Z" fill="url(#paint18_linear_4374_38)"/>
<path d="M72.847 358.179C76.7688 348.91 79.4851 334.717 73.2913 313.641C32.4816 329.513 11.6695 367.138 19.7954 396.963C26.4936 421.551 50.8665 433.527 56.3038 436.048C57.5694 433.205 58.835 430.364 60.0983 427.523C53.798 420.599 46.6972 410.359 47.7013 398.673C49.0942 382.473 64.9086 376.944 72.847 358.179Z" fill="url(#paint19_linear_4374_38)"/>
<path d="M104.348 291.165C104.348 291.165 104.026 298.211 101.81 303.488C99.806 308.256 89.2739 311.255 87.1383 312.319C85.0027 313.383 91.1388 316.496 97.3002 317.106C103.462 317.718 121.055 316.336 124.228 314.032C127.4 311.728 121.678 311.901 117.282 310.307C112.883 308.713 110.34 300.225 111.118 296.372C111.895 292.517 104.348 291.165 104.348 291.165Z" fill="url(#paint20_linear_4374_38)"/>
<path d="M114.093 288.61C117.291 285.509 117.737 285.148 118.084 284.077C119.482 279.777 116.102 273.885 111.668 272.435C111.437 272.36 108.464 271.421 107.33 272.693C106.365 273.773 107.784 275.267 107.11 277.352C106.479 279.302 104.767 279.448 101.59 282.006C98.973 284.111 97.3488 285.422 96.9739 287.265C96.2012 291.063 100.859 296.567 104.982 296.418C106.465 296.363 106.87 295.617 114.093 288.61Z" fill="url(#paint21_linear_4374_38)"/>
<path d="M105.387 297.005C105.387 297.005 108.786 300.803 113.962 299.547C118.596 298.423 117.414 287.923 114.022 286.247C112.891 285.687 110.834 285.733 109.288 286.468C108.374 286.902 108.12 287.354 106.614 288.035C105.225 288.663 104.783 288.576 104.411 289.019C103.944 289.572 103.742 290.764 105.207 293.637C104.152 292.899 103.016 292.744 102.319 293.232C102.208 293.31 101.926 293.584 101.803 293.943C101.361 295.242 102.731 296.564 105.387 297.005Z" fill="url(#paint22_linear_4374_38)"/>
<path d="M492.998 154.836L494.194 161.209L469.569 161.266L255.873 161.767C250.375 161.78 245.32 166.265 244.565 171.785L193.552 508.289C192.793 513.859 201.576 522.361 207.041 522.776L301.846 529.968V529.854L443.66 540.591C443.662 540.591 443.665 540.591 443.667 540.591L444.009 540.733C450.064 541.194 455.62 536.858 456.406 530.975C456.406 530.973 456.406 531 456.409 530.998L504.183 171.721C504.96 165.893 499.088 154.82 492.998 154.836Z" fill="url(#paint23_linear_4374_38)"/>
<path d="M451.575 523.974C450.793 529.859 445.24 534.257 439.185 533.798L201.971 515.821C196.509 515.408 192.707 510.557 193.466 504.987L239.84 164.905C240.592 159.385 245.648 154.9 251.141 154.884L489.694 154.236C495.781 154.22 500.099 158.931 499.326 164.759L451.575 523.974Z" fill="url(#paint24_linear_4374_38)"/>
<path d="M454.727 336.948C454.338 339.862 451.58 342.036 448.567 341.926L239.792 334.406C237.036 334.308 235.097 332.067 235.477 329.284L239.581 299.256C239.961 296.474 242.476 294.593 245.234 294.668L454.192 300.395C457.209 300.478 459.345 302.581 458.958 305.492L454.727 336.948Z" fill="white"/>
<path d="M446.642 397.96C446.254 400.881 443.493 403.373 440.481 403.224L231.863 393.053C229.109 392.918 227.194 390.317 227.573 387.531L231.71 356.923C232.089 354.139 234.628 351.753 237.383 351.863L446.129 360.173C449.141 360.294 451.272 362.984 450.883 365.9L446.642 397.96Z" fill="white"/>
<path opacity="0.1" d="M458.975 305.372C458.48 305.214 457.948 305.127 457.381 305.111L248.418 299.386C245.663 299.309 243.145 301.195 242.77 303.969L238.659 333.997C238.65 334.075 238.643 334.148 238.636 334.226C236.516 333.637 235.154 331.654 235.473 329.279L239.584 299.251C239.959 296.477 242.477 294.588 245.232 294.668L454.195 300.393C457.159 300.48 459.285 302.517 458.975 305.372Z" fill="url(#paint25_linear_4374_38)"/>
<path opacity="0.1" d="M450.928 365.224C450.426 365.028 449.885 364.909 449.311 364.886L240.57 356.573C237.815 356.464 235.272 358.855 234.897 361.639L230.753 392.249C230.73 392.445 230.714 392.635 230.714 392.831C228.594 392.155 227.248 389.906 227.567 387.531L231.711 356.921C232.086 354.137 234.626 351.746 237.384 351.855L446.125 360.168C448.913 360.287 450.935 362.582 450.928 365.224Z" fill="url(#paint26_linear_4374_38)"/>
<path d="M391.159 447.414C391.775 442.807 388.475 438.564 383.785 438.297L275.792 432.177C271.319 431.923 267.189 435.641 266.581 440.126L262.125 473.281C261.516 477.773 264.619 482.07 269.089 482.372L377.027 489.661C381.715 489.979 386.032 486.071 386.65 481.458L391.159 447.414Z" fill="url(#paint27_linear_4374_38)"/>
<path d="M399.315 224.042C397.892 234.64 392.377 244.206 384.533 251.242C376.081 258.831 364.947 263.448 353.369 263.227C341.849 263.008 332.152 258.041 325.926 250.283C320.183 243.133 317.37 233.606 318.779 223.185C321.71 201.506 341.891 183.982 364.036 184.034C386.391 184.082 402.272 201.993 399.315 224.042Z" fill="url(#paint28_linear_4374_38)"/>
<path d="M377.781 211.995C376.504 221.491 367.624 229.1 357.983 228.986C348.381 228.872 341.657 221.137 342.927 211.71C344.2 202.285 352.99 194.683 362.596 194.726C372.244 194.77 379.058 202.5 377.781 211.995Z" fill="white"/>
<path d="M384.535 251.243C376.083 258.831 364.949 263.449 353.371 263.227C341.851 263.008 332.154 258.041 325.928 250.283C333.054 240.484 344.808 233.967 357.29 234.127C369.84 234.286 379.956 241.151 384.535 251.243Z" fill="white"/>
<path opacity="0.4" d="M499.324 164.758L451.575 523.973C450.793 529.855 444.886 534.229 438.833 533.77L296.36 522.972C289.593 516.133 284.019 507.925 280.042 498.076C278.089 493.246 276.659 488.035 275.708 482.554C273.063 467.386 274.088 450.144 277.945 433.22C280.912 420.192 285.562 407.33 291.516 395.725C296.277 386.446 301.876 377.962 308.13 370.833C312.633 365.701 317.503 360.716 322.64 355.827C328.834 349.926 335.416 344.166 342.207 338.46C358.031 325.153 374.974 312.143 390.661 298.404C426.857 266.712 456.223 231.299 449.157 180.771C448.931 179.179 446.726 166.991 443.907 154.358L489.34 154.235C495.425 154.219 500.099 158.932 499.324 164.758Z" fill="white"/>
<defs>
<linearGradient id="paint0_linear_4374_38" x1="433.827" y1="461.211" x2="598.969" y2="9.32387" gradientUnits="userSpaceOnUse">
<stop offset="0.00359712" stop-color="#E38DDD"/>
<stop offset="1" stop-color="#9571F6"/>
</linearGradient>
<linearGradient id="paint1_linear_4374_38" x1="308.725" y1="416.739" x2="636.518" y2="416.739" gradientUnits="userSpaceOnUse">
<stop stop-color="#FF9085"/>
<stop offset="1" stop-color="#FB6FBB"/>
</linearGradient>
<linearGradient id="paint2_linear_4374_38" x1="392.844" y1="340.467" x2="489.57" y2="351.158" gradientUnits="userSpaceOnUse">
<stop stop-color="#444B8C"/>
<stop offset="0.9964" stop-color="#26264F"/>
</linearGradient>
<linearGradient id="paint3_linear_4374_38" x1="307.593" y1="99.7457" x2="541.142" y2="905.315" gradientUnits="userSpaceOnUse">
<stop stop-color="#444B8C"/>
<stop offset="0.9964" stop-color="#26264F"/>
</linearGradient>
<linearGradient id="paint4_linear_4374_38" x1="397.246" y1="79.9443" x2="672.017" y2="833.918" gradientUnits="userSpaceOnUse">
<stop stop-color="#FFC444"/>
<stop offset="0.9964" stop-color="#F36F56"/>
</linearGradient>
<linearGradient id="paint5_linear_4374_38" x1="-2059.36" y1="2171.28" x2="-1869.41" y2="1989.79" gradientUnits="userSpaceOnUse">
<stop stop-color="#311944"/>
<stop offset="1" stop-color="#893976"/>
</linearGradient>
<linearGradient id="paint6_linear_4374_38" x1="58.9363" y1="196.561" x2="211.233" y2="56.5349" gradientUnits="userSpaceOnUse">
<stop stop-color="#FF9085"/>
<stop offset="1" stop-color="#FB6FBB"/>
</linearGradient>
<linearGradient id="paint7_linear_4374_38" x1="215.088" y1="316.593" x2="184.953" y2="347.669" gradientUnits="userSpaceOnUse">
<stop stop-color="#FFC444"/>
<stop offset="0.9964" stop-color="#F36F56"/>
</linearGradient>
<linearGradient id="paint8_linear_4374_38" x1="139.385" y1="608.041" x2="139.635" y2="539.973" gradientUnits="userSpaceOnUse">
<stop stop-color="#AA80F9"/>
<stop offset="0.9964" stop-color="#6165D7"/>
</linearGradient>
<linearGradient id="paint9_linear_4374_38" x1="132.554" y1="629.915" x2="129.354" y2="594.734" gradientUnits="userSpaceOnUse">
<stop stop-color="#FFC444"/>
<stop offset="0.9964" stop-color="#F36F56"/>
</linearGradient>
<linearGradient id="paint10_linear_4374_38" x1="98.7258" y1="607.892" x2="98.9765" y2="539.823" gradientUnits="userSpaceOnUse">
<stop stop-color="#AA80F9"/>
<stop offset="0.9964" stop-color="#6165D7"/>
</linearGradient>
<linearGradient id="paint11_linear_4374_38" x1="91.3463" y1="633.661" x2="88.1465" y2="598.481" gradientUnits="userSpaceOnUse">
<stop stop-color="#FFC444"/>
<stop offset="0.9964" stop-color="#F36F56"/>
</linearGradient>
<linearGradient id="paint12_linear_4374_38" x1="131.307" y1="452.686" x2="106.658" y2="580.363" gradientUnits="userSpaceOnUse">
<stop stop-color="#311944"/>
<stop offset="1" stop-color="#893976"/>
</linearGradient>
<linearGradient id="paint13_linear_4374_38" x1="143.921" y1="515.06" x2="105.95" y2="518.143" gradientUnits="userSpaceOnUse">
<stop stop-color="#311944"/>
<stop offset="1" stop-color="#893976"/>
</linearGradient>
<linearGradient id="paint14_linear_4374_38" x1="122.915" y1="522.11" x2="65.2709" y2="526.792" gradientUnits="userSpaceOnUse">
<stop stop-color="#311944"/>
<stop offset="1" stop-color="#893976"/>
</linearGradient>
<linearGradient id="paint15_linear_4374_38" x1="168.455" y1="334.292" x2="126.876" y2="604.837" gradientUnits="userSpaceOnUse">
<stop stop-color="#AA80F9"/>
<stop offset="0.9964" stop-color="#6165D7"/>
</linearGradient>
<linearGradient id="paint16_linear_4374_38" x1="77.7349" y1="631.073" x2="57.6343" y2="903.99" gradientUnits="userSpaceOnUse">
<stop stop-color="#AA80F9"/>
<stop offset="0.9964" stop-color="#6165D7"/>
</linearGradient>
<linearGradient id="paint17_linear_4374_38" x1="7.59319" y1="538.031" x2="119.249" y2="344.255" gradientUnits="userSpaceOnUse">
<stop stop-color="#AA80F9"/>
<stop offset="0.9964" stop-color="#6165D7"/>
</linearGradient>
<linearGradient id="paint18_linear_4374_38" x1="47.9576" y1="404.93" x2="71.5679" y2="437.244" gradientUnits="userSpaceOnUse">
<stop stop-color="#FFC444"/>
<stop offset="0.9964" stop-color="#F36F56"/>
</linearGradient>
<linearGradient id="paint19_linear_4374_38" x1="27.3296" y1="627.361" x2="7.22898" y2="900.278" gradientUnits="userSpaceOnUse">
<stop stop-color="#AA80F9"/>
<stop offset="0.9964" stop-color="#6165D7"/>
</linearGradient>
<linearGradient id="paint20_linear_4374_38" x1="116.154" y1="325.143" x2="93.4016" y2="296.461" gradientUnits="userSpaceOnUse">
<stop stop-color="#FFC444"/>
<stop offset="0.9964" stop-color="#F36F56"/>
</linearGradient>
<linearGradient id="paint21_linear_4374_38" x1="98.5746" y1="314.715" x2="110.537" y2="274.843" gradientUnits="userSpaceOnUse">
<stop stop-color="#444B8C"/>
<stop offset="0.9964" stop-color="#3E4177"/>
</linearGradient>
<linearGradient id="paint22_linear_4374_38" x1="129.824" y1="300.832" x2="95.509" y2="285.357" gradientUnits="userSpaceOnUse">
<stop stop-color="#FFC444"/>
<stop offset="0.9964" stop-color="#F36F56"/>
</linearGradient>
<linearGradient id="paint23_linear_4374_38" x1="193.507" y1="347.802" x2="504.253" y2="347.802" gradientUnits="userSpaceOnUse">
<stop stop-color="#311944"/>
<stop offset="1" stop-color="#893976"/>
</linearGradient>
<linearGradient id="paint24_linear_4374_38" x1="382.43" y1="951.04" x2="346.332" y2="317.518" gradientUnits="userSpaceOnUse">
<stop offset="0.003597" stop-color="#F36F56"/>
<stop offset="1" stop-color="#FFC444"/>
</linearGradient>
<linearGradient id="paint25_linear_4374_38" x1="235.426" y1="314.448" x2="459.004" y2="314.448" gradientUnits="userSpaceOnUse">
<stop offset="0.003597" stop-color="#F36F56"/>
<stop offset="1" stop-color="#FFC444"/>
</linearGradient>
<linearGradient id="paint26_linear_4374_38" x1="227.522" y1="372.342" x2="450.928" y2="372.342" gradientUnits="userSpaceOnUse">
<stop offset="0.003597" stop-color="#F36F56"/>
<stop offset="1" stop-color="#FFC444"/>
</linearGradient>
<linearGradient id="paint27_linear_4374_38" x1="337.331" y1="393.719" x2="288.65" y2="706.498" gradientUnits="userSpaceOnUse">
<stop offset="0.003597" stop-color="#F36F56"/>
<stop offset="1" stop-color="#FFC444"/>
</linearGradient>
<linearGradient id="paint28_linear_4374_38" x1="353.759" y1="68.2623" x2="364.15" y2="381.745" gradientUnits="userSpaceOnUse">
<stop offset="0.003597" stop-color="#F36F56"/>
<stop offset="1" stop-color="#FFC444"/>
</linearGradient>
</defs>
</svg>
